<?xml version="1.0" encoding="utf-8"?>
<!-- Generator: Adobe Illustrator 23.0.0, SVG Export Plug-In . SVG Version: 6.00 Build 0)  -->
<svg version="1.1" id="Capa_1" xmlns="http://www.w3.org/2000/svg" xmlns:xlink="http://www.w3.org/1999/xlink" x="0px" y="0px"
	 viewBox="0 0 744.94 322.67" style="enable-background:new 0 0 744.94 322.67;" xml:space="preserve">
<style type="text/css">
	.st0{fill:#CC2128;}
	.st1{fill:#CE3C3C;}
	.st2{fill:#040706;}
	.st3{fill:#737476;}
</style>
<path d="M483.6,169.83c0,9.12,0,18.26,0,27.52c-2.98,0-5.67,0-8.35,0c-0.51-1.69-0.73-169.97-0.21-174.35
	c2.71-0.21,5.46-0.14,8.57-0.02c0.01,9.12,0,18.12,0,27.13c0,9.12,0,18.24,0,27.36c0,9.01,0,18.02,0,27.36
	c1.11-0.63,1.37-1.48,1.8-2.16c7.53-11.98,17.66-21,31.13-25.49c23.7-7.9,44.54-2.48,61.97,15.2c10.53,10.68,16.12,23.9,17.36,38.85
	c1.64,19.72-4.12,37.03-17.83,51.36c-11.51,12.03-25.81,18.34-42.47,18.09c-20.77-0.31-36.86-9.77-48.7-26.68
	c-0.96-1.37-1.84-2.78-2.77-4.16C484.08,169.8,483.96,169.83,483.6,169.83z M483.71,135.23c0.02,14.16,3.78,25.83,10.79,35.48
	c18.39,25.31,53.57,28.94,75.98,7.84c22.84-21.5,23.75-58.03,2.02-80.69c-18.49-19.27-48.19-21.07-68.68-3.98
	C490.34,105.12,484.08,119.86,483.71,135.23z"/>
<path d="M729.43,197.35c-2.66,0-5.34,0-8.31,0c-0.25-3.02-0.09-6.03-0.12-9.02c-0.03-3.12-0.01-6.24-0.01-9.36c0-3.01,0-6.01,0-9.02
	c-0.15-0.06-0.3-0.11-0.45-0.17c-0.44,0.7-0.89,1.41-1.33,2.11c-8.27,13.09-19.55,22.53-34.59,26.52
	c-24.04,6.37-44.48-0.35-60.73-18.93c-11.47-13.12-16.22-28.83-15.2-46.19c1.06-18.03,8.26-33.23,21.88-45.14
	c12.13-10.6,26.43-15.51,42.5-14.23c18.59,1.48,33.11,10.43,43.99,25.43c1.21,1.67,2.28,3.44,3.4,5.14c0.17-0.05,0.25-0.06,0.32-0.1
	c0.06-0.04,0.13-0.1,0.13-0.16c0.06-8.95,0.11-17.91,0.16-26.86c0-0.08,0.05-0.15,0.14-0.42c2.67,0,5.42,0,8.16,0
	C729.86,78.82,729.92,194.92,729.43,197.35z M667.14,192.33c12.57-0.11,22.5-3.39,31.36-9.86c26.58-19.42,30.17-59.43,7.54-83.78
	c-20.41-21.97-53.9-22.05-74.41-0.19c-18.6,19.82-20.33,50.99-3.85,72.82C638,184.85,651.72,191.86,667.14,192.33z"/>
<path d="M24.19,50.6c3.11,0,5.87,0,8.84,0c0,8.69,0,17.21,0,26.08c3.28,0.02,6.36,0.05,9.44,0.06c3.12,0.01,6.24,0,9.36,0
	c3.04,0,6.08,0,9.12,0c3.12,0,6.24,0,9.36,0s6.24,0,9.36,0s6.24,0,9.36,0c3.04,0,6.08,0,9.12,0c3.12,0,6.24,0,9.36,0
	c3.1,0,6.21,0,9.47,0c0,3,0,5.76,0,8.85c-3.48,0.02-6.97,0.04-10.45,0.05c-3.44,0.01-6.88,0-10.32,0c-3.52,0-7.04,0-10.56,0
	s-7.04,0-10.56,0c-3.44,0-6.88,0-10.32,0c-3.52,0-7.04,0-10.56,0c-3.44,0-6.88,0-10.32,0c-3.5,0-7,0-10.65,0
	c-0.06,0.91-0.15,1.61-0.15,2.3c-0.01,22.24-0.04,44.48,0.04,66.71c0.01,2.2,0.48,4.45,1.04,6.6c1.99,7.62,5.37,14.54,10.85,20.3
	c5.87,6.17,13.12,9.51,21.57,10.32c5.79,0.56,11.52,0.15,17.14-1.25c14.46-3.61,23.32-12.91,27.24-27.14
	c1.5-5.46,1.56-11.06,1.59-16.66c0.02-3.19,0-6.39,0-9.78c2.99,0,5.81,0,8.66,0c0.09,0.3,0.21,0.52,0.21,0.74
	c-0.11,6.15,0.03,12.33-0.42,18.46c-0.58,7.89-2.85,15.39-6.74,22.33c-6.71,11.95-17.1,18.77-30.37,21.3
	c-8.97,1.71-17.99,1.8-26.9-0.45c-12.3-3.11-21.15-10.56-26.74-21.9c-4.03-8.17-6.02-16.87-6.04-25.94
	c-0.07-32.72-0.03-65.43-0.03-98.15C24.19,52.55,24.19,51.68,24.19,50.6z"/>
<path class="st0" d="M414.69,24.27c1.41,0.93,1.47,2.07,1.5,3.16c0.07,2.4,0.09,4.8,0.11,7.2c0.1,11.91,0.18,23.83,0.28,35.74
	c0.01,0.8-0.01,1.62,0.16,2.39c0.16,0.71,0.56,1.38,0.87,2.11c1.88-0.7,1.98-2.14,2.07-3.44c0.17-2.47,0.2-4.95,0.23-7.43
	c0.14-11.83,0.25-23.67,0.39-35.5c0.01-0.87,0.07-1.77,0.3-2.6c0.14-0.53,0.63-0.97,0.98-1.48c1.44,0.86,1.26,2.04,1.27,3.13
	c0.07,6,0.1,12,0.17,17.99c0.1,8.48,0.23,16.95,0.36,25.43c0.01,0.72,0.04,1.45,0.22,2.14c0.19,0.75,0.45,1.77,1.45,1.57
	c0.53-0.1,1.17-0.86,1.32-1.44c0.32-1.22,0.47-2.51,0.49-3.78c0.09-5.04,0.09-10.08,0.15-15.11c0.11-8.96,0.23-17.91,0.38-26.87
	c0.02-1-0.22-2.12,0.94-2.86c1.23,0.14,1.41,1.1,1.45,2.06c0.11,2.47,0.21,4.95,0.24,7.43c0.11,10.96,0.18,21.91,0.29,32.87
	c0.02,1.68,0.13,3.36,0.31,5.02c0.11,1.1,0.34,2.22,1.55,2.78c1.2-0.38,1.27-1.42,1.39-2.32c0.14-1.11,0.13-2.23,0.14-3.35
	c0.09-13.19,0.18-26.39,0.28-39.58c0.01-0.96,0.02-1.93,0.18-2.87c0.12-0.73,0.46-1.43,0.74-2.22c1.43,0.48,1.44,1.47,1.52,2.4
	c0.3,3.34,0.57,6.69,0.87,10.03c0.93,10.35,1.89,20.7,2.79,31.05c0.44,4.97,0.14,9.9-1.07,14.76c-0.74,2.98-1.96,5.73-3.67,8.29
	c-2.86,4.28-5.33,8.76-6.3,13.88c-0.39,2.03-0.71,4.12-0.72,6.18c-0.12,18,0.2,35.98,1.25,53.95c0.47,7.98,0.93,15.96,1.65,23.92
	c1.13,12.5,2.75,24.94,5.9,37.13c0.87,3.36,1.33,6.73,0.31,10.17c-1.52,5.1-4.84,7.73-10.18,7.77c-2.31,0.02-4.64-0.03-6.92-0.35
	c-2.97-0.41-5.12-2.19-6.43-4.86c-1.4-2.85-2.11-5.86-1.45-9.06c1-4.77,2.25-9.5,3.01-14.3c1.29-8.12,2.5-16.27,3.34-24.45
	c2.64-25.64,3.05-51.39,3.27-77.14c0.07-7.68-1.63-14.82-6.06-21.08c-5.64-7.96-6.49-16.83-5.69-26.11
	c0.7-8.12,1.49-16.24,2.22-24.36c0.47-5.17,0.88-10.35,1.38-15.52C413.96,25.94,414.38,25.19,414.69,24.27z"/>
<path d="M196.51,200.76c-19.14-0.66-35.66-9.81-47.37-27.28c-17.92-26.72-13.28-63.56,10.55-84.77c12.3-10.95,26.8-16.11,43.24-14.8
	c18.3,1.45,32.8,10.1,43.53,24.87c9.69,13.35,13.59,28.43,11.97,44.84c-1.82,18.43-9.89,33.57-24.53,44.99
	C223.52,196.7,211.62,200.63,196.51,200.76z M200.54,82.15c-12.58,0.02-22.79,3.34-31.42,9.57c-25.13,18.16-30.42,54.94-11.37,79.84
	c9.38,12.25,21.77,19.47,37.24,20.57c15.77,1.12,29.26-4.38,40.18-15.73c18.79-19.52,20.93-50.44,5-72.37
	C229.94,89.95,216.02,82.55,200.54,82.15z"/>
<path d="M383.67,132.76c-0.86,0.06-1.41,0.13-1.96,0.14c-2.15,0.01-4.31,0.01-6.79,0.01c-0.03-1.13-0.1-2.14-0.07-3.14
	c0.17-5.69,0.13-11.39-1.35-16.92c-0.95-3.53-2.03-7.1-3.6-10.39c-5.1-10.64-13.79-16.78-25.26-18.98
	c-10.33-1.99-20.41-0.9-30.05,3.35c-12.5,5.51-19.9,15.2-22.56,28.5c-0.65,3.27-0.95,6.66-0.97,9.99
	c-0.08,23.04-0.04,46.08-0.04,69.11c0,0.94,0,1.87,0,2.92c-2.99,0-5.68,0-8.33,0c-0.1-0.07-0.17-0.11-0.22-0.17
	c-0.05-0.06-0.11-0.13-0.12-0.2c-0.06-0.39-0.14-0.79-0.14-1.18c0-39.36,0.01-78.71,0.03-118.07c0-0.23,0.12-0.45,0.22-0.83
	c2.74,0,5.5,0,8.48,0c0,6.6,0,13.12,0,19.63c0.13,0.05,0.27,0.1,0.4,0.14c0.28-0.32,0.6-0.62,0.82-0.98
	c9.4-14.84,23.13-21.73,40.43-22.12c7.18-0.16,14.22,0.6,20.98,3.15c11.05,4.17,18.8,11.89,23.82,22.45
	c4.22,8.87,6.22,18.27,6.27,28.09C383.68,129.01,383.67,130.76,383.67,132.76z"/>
<g>
	<g>
		<path class="st1" d="M169.96,247.07c-4.49,0-8.37-2.6-10.4-6.43v5.86h-1.75v-35.18h1.75v16.74c2.03-3.88,5.91-6.52,10.4-6.52
			c6.71,0,12.2,5.77,12.2,12.86C182.16,241.39,176.68,247.07,169.96,247.07z M169.96,223.33c-5.72,0-10.4,4.97-10.4,11.06
			c0,6.01,4.68,10.92,10.4,10.92c5.77,0,10.4-4.92,10.4-10.92C180.36,228.3,175.73,223.33,169.96,223.33z"/>
		<path class="st1" d="M169.96,247.65c-3.86,0-7.47-1.88-9.82-5.01v4.44h-2.92v-36.34h2.92v15.29c2.35-3.18,5.96-5.08,9.82-5.08
			c7.05,0,12.78,6.03,12.78,13.44C182.74,241.7,177.01,247.65,169.96,247.65z M158.98,238.3l1.1,2.07c2,3.78,5.79,6.12,9.89,6.12
			c6.4,0,11.62-5.42,11.62-12.09c0-6.77-5.21-12.28-11.62-12.28c-4.09,0-7.88,2.38-9.89,6.21l-1.1,2.1v-18.52h-0.59v34.01h0.59
			V238.3z M169.96,245.9c-6.06,0-10.98-5.16-10.98-11.51c0-6.42,4.93-11.65,10.98-11.65c6.06,0,10.98,5.22,10.98,11.65
			C180.95,240.74,176.02,245.9,169.96,245.9z M169.96,223.91c-5.41,0-9.82,4.7-9.82,10.48c0,5.7,4.4,10.34,9.82,10.34
			c5.41,0,9.82-4.64,9.82-10.34C179.78,228.62,175.38,223.91,169.96,223.91z"/>
	</g>
	<g>
		<path class="st1" d="M208.95,246.5h-1.75v-5.86c-1.99,3.83-5.86,6.43-10.4,6.43c-6.71,0-12.15-5.67-12.15-12.67
			c0-7.09,5.44-12.86,12.15-12.86c4.54,0,8.42,2.65,10.4,6.52v-5.91h1.75V246.5z M196.8,223.33c-5.72,0-10.4,4.97-10.4,11.06
			c0,6.01,4.68,10.92,10.4,10.92c5.72,0,10.4-4.92,10.4-10.92C207.2,228.3,202.52,223.33,196.8,223.33z"/>
		<path class="st1" d="M196.8,247.65c-7.02,0-12.74-5.95-12.74-13.25c0-7.41,5.71-13.44,12.74-13.44c3.89,0,7.5,1.9,9.82,5.06v-4.45
			h2.91v25.52h-2.91v-4.42C204.3,245.78,200.69,247.65,196.8,247.65z M196.8,222.12c-6.38,0-11.57,5.51-11.57,12.28
			c0,6.67,5.19,12.09,11.57,12.09c4.14,0,7.93-2.34,9.88-6.12l1.1-2.12v7.67h0.58v-23.19h-0.58v7.74l-1.1-2.15
			C204.72,224.5,200.94,222.12,196.8,222.12z M196.8,245.9c-6.06,0-10.98-5.16-10.98-11.51c0-6.42,4.93-11.65,10.98-11.65
			c6.06,0,10.98,5.22,10.98,11.65C207.79,240.74,202.86,245.9,196.8,245.9z M196.8,223.91c-5.41,0-9.82,4.7-9.82,10.48
			c0,5.7,4.4,10.34,9.82,10.34c5.41,0,9.82-4.64,9.82-10.34C206.62,228.62,202.22,223.91,196.8,223.91z"/>
	</g>
	<g>
		<path class="st1" d="M236.21,246.5h-1.75v-14.71c0-5.34-2.89-8.56-8.23-8.56c-4.92,0-8.75,3.64-8.75,8.56v14.71h-1.75v-24.35h1.75
			v4.12c1.75-2.88,4.92-4.73,8.79-4.73c6.24,0,9.93,3.93,9.93,10.26V246.5z"/>
		<path class="st1" d="M236.8,247.08h-2.91v-15.29c0-5.14-2.71-7.97-7.64-7.97c-4.66,0-8.17,3.43-8.17,7.97v15.29h-2.91v-25.52h2.91
			v2.92c2-2.27,4.9-3.54,8.21-3.54c6.48,0,10.51,4.15,10.51,10.84V247.08z M235.05,245.92h0.58v-14.12c0-6.06-3.49-9.68-9.35-9.68
			c-3.55,0-6.58,1.62-8.3,4.45l-1.08,1.78v-5.61h-0.58v23.19h0.58v-14.12c0-5.21,4.01-9.14,9.33-9.14c5.6,0,8.81,3.33,8.81,9.14
			V245.92z"/>
	</g>
	<g>
		<path class="st1" d="M264.99,257.32h-1.75v-16.69c-1.99,3.83-5.86,6.43-10.4,6.43c-6.71,0-12.15-5.67-12.15-12.67
			c0-7.09,5.44-12.86,12.15-12.86c4.54,0,8.42,2.65,10.4,6.52v-5.91h1.75V257.32z M252.84,223.33c-5.72,0-10.35,4.97-10.35,11.06
			c0,6.01,4.63,10.92,10.35,10.92c5.72,0,10.4-4.92,10.4-10.92C263.24,228.3,258.56,223.33,252.84,223.33z"/>
		<path class="st1" d="M265.58,257.91h-2.92v-15.24c-2.32,3.12-5.93,4.99-9.82,4.99c-7.02,0-12.73-5.95-12.73-13.25
			c0-7.41,5.71-13.44,12.73-13.44c3.89,0,7.5,1.9,9.82,5.06v-4.45h2.92V257.91z M263.82,256.74h0.59v-34.01h-0.59v7.74l-1.1-2.15
			c-1.96-3.83-5.75-6.21-9.88-6.21c-6.38,0-11.57,5.51-11.57,12.28c0,6.67,5.19,12.09,11.57,12.09c4.14,0,7.93-2.34,9.88-6.12
			l1.1-2.12V256.74z M252.84,245.9c-6.03,0-10.93-5.16-10.93-11.51c0-6.42,4.91-11.65,10.93-11.65c6.06,0,10.98,5.22,10.98,11.65
			C263.82,240.74,258.9,245.9,252.84,245.9z M252.84,223.91c-5.39,0-9.77,4.7-9.77,10.48c0,5.7,4.38,10.34,9.77,10.34
			c5.41,0,9.82-4.64,9.82-10.34C262.66,228.62,258.26,223.91,252.84,223.91z"/>
	</g>
	<g>
		<path class="st1" d="M291.59,246.5h-1.75v-4.02c-1.66,2.84-4.68,4.58-8.51,4.58c-5.91,0-10.21-4.3-10.21-10.21v-14.71h1.75v14.71
			c0,4.92,3.59,8.46,8.46,8.46c4.96,0,8.51-3.55,8.51-8.46v-14.71h1.75V246.5z"/>
		<path class="st1" d="M281.34,247.65c-6.25,0-10.79-4.54-10.79-10.79v-15.29h2.91v15.29c0,4.57,3.32,7.88,7.88,7.88
			c4.67,0,7.93-3.24,7.93-7.88v-15.29h2.91v25.52h-2.91v-2.8C287.37,246.44,284.57,247.65,281.34,247.65z M271.71,222.73v14.12
			c0,5.58,4.05,9.63,9.63,9.63c3.49,0,6.41-1.57,8.01-4.3l1.09-1.86v5.59h0.58v-23.19h-0.58v14.12c0,5.24-3.82,9.05-9.09,9.05
			c-5.24,0-9.05-3.8-9.05-9.05v-14.12H271.71z"/>
	</g>
	<g>
		<path class="st1" d="M298.01,234.3c0.05,6.34,4.78,11.02,10.69,11.02c5.72,0,8.32-3.17,9.5-6.38h1.84
			c-1.7,5.25-5.62,8.13-11.35,8.13c-6.95,0-12.43-5.58-12.43-12.67s5.44-12.86,12.15-12.86c7.28,0,12.25,6.62,12.15,12.77H298.01z
			 M318.67,232.55c-0.85-5.25-5.16-9.22-10.26-9.22c-5.15,0-9.41,3.97-10.21,9.22H318.67z"/>
		<path class="st1" d="M308.69,247.65c-7.3,0-13.01-5.82-13.01-13.25c0-7.41,5.71-13.44,12.73-13.44c3.29,0,6.4,1.33,8.78,3.74
			c2.53,2.57,4.01,6.17,3.96,9.62l-0.01,0.57h-22.53c0.32,5.66,4.56,9.85,10.08,9.85c4.48,0,7.49-2.02,8.96-6l0.14-0.38h3.05
			l-0.25,0.76C318.81,244.62,314.58,247.65,308.69,247.65z M308.41,222.12c-6.38,0-11.57,5.51-11.57,12.28
			c0,6.78,5.21,12.09,11.85,12.09c5.14,0,8.76-2.4,10.52-6.97h-0.62c-1.69,4.18-5.1,6.38-9.9,6.38c-6.37,0-11.22-4.99-11.27-11.6
			l0-0.59h22.55c-0.11-2.97-1.44-6-3.62-8.21C314.21,223.32,311.38,222.12,308.41,222.12z M319.36,233.13h-21.84l0.1-0.67
			c0.86-5.63,5.4-9.71,10.79-9.71c5.37,0,9.92,4.08,10.84,9.71L319.36,233.13z M298.9,231.97h19.07c-1.06-4.71-4.98-8.05-9.56-8.05
			C303.82,223.91,299.91,227.26,298.9,231.97z"/>
	</g>
	<g>
		<path class="st1" d="M344.42,237.28c0,5.67-4.11,9.79-9.78,9.79s-9.79-4.12-9.79-9.79v-20.33h1.75v5.2h16.97v1.75H326.6v13.38
			c0,4.68,3.4,8.04,8.04,8.04c4.68,0,8.04-3.36,8.04-8.04v-2.98h1.75V237.28z"/>
		<path class="st1" d="M334.64,247.65c-6.01,0-10.37-4.36-10.37-10.37v-20.91h2.92v5.2h16.97v2.92h-16.97v12.8
			c0,4.32,3.14,7.46,7.45,7.46c4.39,0,7.45-3.07,7.45-7.46v-3.56H345v3.56C345,243.29,340.64,247.65,334.64,247.65z M325.43,217.53
			v19.74c0,5.33,3.87,9.21,9.21,9.21c5.33,0,9.2-3.87,9.2-9.21v-2.39h-0.58v2.39c0,5-3.63,8.62-8.62,8.62s-8.62-3.63-8.62-8.62
			v-13.96h16.97v-0.59h-16.97v-5.2H325.43z"/>
	</g>
	<g>
		<path class="st1" d="M349.52,234.3c0.05,6.34,4.77,11.02,10.68,11.02c5.72,0,8.32-3.17,9.5-6.38h1.85
			c-1.7,5.25-5.63,8.13-11.35,8.13c-6.95,0-12.44-5.58-12.44-12.67s5.44-12.86,12.15-12.86c7.28,0,12.24,6.62,12.15,12.77H349.52z
			 M370.18,232.55c-0.85-5.25-5.15-9.22-10.26-9.22c-5.16,0-9.41,3.97-10.21,9.22H370.18z"/>
		<path class="st1" d="M360.2,247.65c-7.3,0-13.02-5.82-13.02-13.25c0-7.41,5.71-13.44,12.74-13.44c3.29,0,6.4,1.33,8.77,3.74
			c2.53,2.57,4.01,6.17,3.96,9.62l-0.01,0.57h-22.52c0.31,5.66,4.56,9.85,10.08,9.85c4.48,0,7.49-2.02,8.95-6l0.14-0.38h3.05
			l-0.25,0.76C370.32,244.62,366.09,247.65,360.2,247.65z M359.92,222.12c-6.38,0-11.57,5.51-11.57,12.28
			c0,6.78,5.21,12.09,11.85,12.09c5.14,0,8.76-2.4,10.52-6.97h-0.62c-1.68,4.18-5.1,6.38-9.9,6.38c-6.38,0-11.22-4.99-11.27-11.6
			l0-0.59h22.55c-0.11-2.97-1.44-6-3.62-8.21C365.71,223.32,362.89,222.12,359.92,222.12z M370.86,233.13h-21.83l0.1-0.67
			c0.86-5.63,5.4-9.71,10.79-9.71c5.36,0,9.92,4.08,10.83,9.71L370.86,233.13z M350.4,231.97h19.07c-1.06-4.71-4.98-8.05-9.55-8.05
			C355.32,223.91,351.42,227.26,350.4,231.97z"/>
	</g>
	<g>
		<path class="st1" d="M393.47,244.23c-1.75,1.8-4.63,2.84-8.04,2.84c-6.15,0-10.5-2.69-11.3-7.66h1.75c0.85,3.92,4.35,6,9.5,6
			c2.93,0,5.39-0.95,6.81-2.41c0.85-0.9,1.28-2.08,1.18-3.35c-0.09-2.98-2.51-4.49-8.46-5.34c-4.21-0.62-9.41-1.32-9.5-6.15
			c0-3.31,3.12-6.62,9.22-6.62c5.39,0,8.94,2.41,9.98,6.81h-1.8c-0.99-3.26-3.78-5.15-8.13-5.15c-4.4,0-7.52,2.13-7.47,4.96
			c0.05,2.79,2.6,3.69,7.99,4.44c5.06,0.76,9.74,2.08,9.98,7C395.22,241.3,394.65,243,393.47,244.23z"/>
		<path class="st1" d="M385.43,247.65c-6.61,0-11.05-3.05-11.88-8.15l-0.11-0.68h2.91l0.1,0.46c0.78,3.58,3.95,5.54,8.93,5.54
			c2.65,0,5.04-0.83,6.39-2.23c0.74-0.78,1.1-1.81,1.02-2.91c-0.07-2.22-1.45-3.88-7.97-4.81l-0.14-0.02
			c-4.12-0.6-9.75-1.43-9.86-6.69c0-3.59,3.37-7.21,9.8-7.21c5.69,0,9.44,2.58,10.54,7.26l0.17,0.72h-2.96l-0.13-0.41
			c-0.95-3.1-3.57-4.74-7.58-4.74c-2.5,0-4.64,0.72-5.87,1.97c-0.68,0.69-1.04,1.53-1.02,2.4c0.04,2.17,1.78,3.08,7.49,3.88
			c5.29,0.79,10.22,2.25,10.48,7.55c0.05,1.94-0.63,3.78-1.86,5.07l0,0C391.99,246.58,388.99,247.65,385.43,247.65z M374.84,239.99
			c1,4.14,4.82,6.49,10.59,6.49c3.19,0,5.97-0.97,7.62-2.66c1.02-1.06,1.58-2.6,1.54-4.21c-0.2-4.19-3.94-5.61-9.48-6.44
			c-4.77-0.67-8.43-1.46-8.48-5.01c-0.02-1.2,0.45-2.32,1.35-3.24c1.45-1.47,3.89-2.31,6.7-2.31c4.33,0,7.35,1.82,8.55,5.15h0.61
			c-1.18-3.65-4.42-5.64-9.21-5.64c-5.67,0-8.63,3.04-8.63,6.04c0.08,4.26,4.75,4.95,8.86,5.55l0.14,0.02
			c6.26,0.89,8.86,2.6,8.96,5.9c0.1,1.4-0.37,2.75-1.34,3.77c-1.6,1.65-4.23,2.59-7.23,2.59c-5.3,0-8.9-2.18-9.96-6H374.84z"/>
	</g>
	<g>
		<path class="st2" d="M455.55,234.3c0.05,6.34,4.77,11.02,10.69,11.02c5.72,0,8.32-3.17,9.5-6.38h1.85
			c-1.7,5.25-5.63,8.13-11.35,8.13c-6.95,0-12.44-5.58-12.44-12.67s5.44-12.86,12.15-12.86c7.28,0,12.24,6.62,12.15,12.77H455.55z
			 M476.21,232.55c-0.85-5.25-5.15-9.22-10.26-9.22c-5.16,0-9.41,3.97-10.21,9.22H476.21z"/>
		<path class="st2" d="M466.24,247.65c-7.3,0-13.02-5.82-13.02-13.25c0-7.41,5.71-13.44,12.74-13.44c3.29,0,6.4,1.33,8.77,3.74
			c2.53,2.57,4.01,6.17,3.96,9.62l-0.01,0.57h-22.52c0.31,5.66,4.56,9.85,10.08,9.85c4.48,0,7.49-2.02,8.95-6l0.14-0.38h3.05
			l-0.25,0.76C476.35,244.62,472.12,247.65,466.24,247.65z M465.95,222.12c-6.38,0-11.57,5.51-11.57,12.28
			c0,6.78,5.21,12.09,11.85,12.09c5.14,0,8.76-2.4,10.52-6.97h-0.62c-1.68,4.18-5.1,6.38-9.9,6.38c-6.38,0-11.22-4.99-11.27-11.6
			l0-0.59h22.55c-0.11-2.97-1.44-6-3.62-8.21C471.74,223.32,468.92,222.12,465.95,222.12z M476.89,233.13h-21.83l0.1-0.67
			c0.86-5.63,5.4-9.71,10.79-9.71c5.36,0,9.92,4.08,10.83,9.71L476.89,233.13z M456.44,231.97h19.07c-1.06-4.71-4.98-8.05-9.55-8.05
			C461.36,223.91,457.45,227.26,456.44,231.97z"/>
	</g>
	<g>
		<path class="st2" d="M490.38,246.5h-1.89l-9.36-24.35h1.89l8.42,21.94l8.42-21.94h1.89L490.38,246.5z"/>
		<path class="st2" d="M490.78,247.08h-2.69l-9.81-25.52h3.14l8.02,20.89l8.02-20.89h3.14L490.78,247.08z M488.89,245.92h1.09
			l8.91-23.19h-0.64l-8.82,22.98l-8.82-22.98h-0.64L488.89,245.92z"/>
	</g>
	<g>
		<path class="st2" d="M502.61,234.3c0.05,6.34,4.78,11.02,10.68,11.02c5.72,0,8.32-3.17,9.5-6.38h1.84
			c-1.7,5.25-5.62,8.13-11.35,8.13c-6.95,0-12.43-5.58-12.43-12.67s5.44-12.86,12.15-12.86c7.28,0,12.25,6.62,12.15,12.77H502.61z
			 M523.28,232.55c-0.85-5.25-5.16-9.22-10.26-9.22c-5.15,0-9.41,3.97-10.21,9.22H523.28z"/>
		<path class="st2" d="M513.3,247.65c-7.3,0-13.01-5.82-13.01-13.25c0-7.41,5.71-13.44,12.73-13.44c3.29,0,6.4,1.33,8.78,3.74
			c2.53,2.57,4.01,6.17,3.96,9.62l-0.01,0.57h-22.53c0.32,5.66,4.56,9.85,10.08,9.85c4.48,0,7.49-2.02,8.96-6l0.14-0.38h3.05
			l-0.25,0.76C523.41,244.62,519.19,247.65,513.3,247.65z M513.01,222.12c-6.38,0-11.57,5.51-11.57,12.28
			c0,6.78,5.2,12.09,11.85,12.09c5.14,0,8.76-2.4,10.52-6.97h-0.62c-1.69,4.18-5.1,6.38-9.9,6.38c-6.37,0-11.22-4.99-11.27-11.6
			l0-0.59h22.55c-0.11-2.97-1.44-6-3.62-8.21C518.81,223.32,515.99,222.12,513.01,222.12z M523.96,233.13h-21.84l0.1-0.67
			c0.86-5.63,5.4-9.71,10.79-9.71c5.37,0,9.92,4.08,10.84,9.71L523.96,233.13z M503.5,231.97h19.07c-1.06-4.71-4.98-8.05-9.56-8.05
			C508.42,223.91,504.52,227.26,503.5,231.97z"/>
	</g>
	<g>
		<path class="st2" d="M550.3,246.5h-1.75v-14.71c0-5.34-2.88-8.56-8.23-8.56c-4.92,0-8.74,3.64-8.74,8.56v14.71h-1.75v-24.35h1.75
			v4.12c1.75-2.88,4.92-4.73,8.79-4.73c6.24,0,9.93,3.93,9.93,10.26V246.5z"/>
		<path class="st2" d="M550.89,247.08h-2.92v-15.29c0-5.14-2.71-7.97-7.64-7.97c-4.65,0-8.16,3.43-8.16,7.97v15.29h-2.92v-25.52
			h2.92v2.92c1.99-2.27,4.9-3.53,8.21-3.53c6.48,0,10.51,4.15,10.51,10.84V247.08z M549.14,245.92h0.59v-14.12
			c0-6.06-3.49-9.68-9.35-9.68c-3.56,0-6.58,1.62-8.3,4.45l-1.08,1.78v-5.62h-0.59v23.19H531v-14.12c0-5.21,4.01-9.14,9.33-9.14
			c5.6,0,8.81,3.33,8.81,9.14V245.92z"/>
	</g>
	<g>
		<path class="st2" d="M576.1,237.28c0,5.67-4.12,9.79-9.79,9.79s-9.78-4.12-9.78-9.79v-20.33h1.75v5.2h16.98v1.75h-16.98v13.38
			c0,4.68,3.4,8.04,8.04,8.04c4.68,0,8.04-3.36,8.04-8.04v-2.98h1.75V237.28z"/>
		<path class="st2" d="M566.31,247.65c-6.01,0-10.37-4.36-10.37-10.37v-20.91h2.91v5.2h16.97v2.92h-16.97v12.8
			c0,4.32,3.14,7.46,7.46,7.46c4.39,0,7.46-3.07,7.46-7.46v-3.56h2.92v3.56C576.69,243.29,572.32,247.65,566.31,247.65z
			 M557.11,217.53v19.74c0,5.33,3.87,9.21,9.2,9.21c5.33,0,9.21-3.87,9.21-9.21v-2.39h-0.59v2.39c0,5-3.63,8.62-8.62,8.62
			c-4.99,0-8.62-3.63-8.62-8.62v-13.96h16.97v-0.59h-16.97v-5.2H557.11z"/>
	</g>
	<g>
		<path class="st2" d="M603.79,234.4c0,7-5.48,12.67-12.2,12.67c-6.66,0-12.15-5.67-12.15-12.67c0-7.09,5.48-12.86,12.15-12.86
			C598.31,221.54,603.79,227.3,603.79,234.4z M602,234.4c0-6.2-4.63-11.2-10.4-11.2c-5.72,0-10.4,5.01-10.4,11.2
			c0,6.05,4.68,11.01,10.4,11.01C597.36,245.41,602,240.45,602,234.4z"/>
		<path class="st2" d="M591.6,247.65c-7.02,0-12.73-5.95-12.73-13.25c0-7.41,5.71-13.44,12.73-13.44c7.05,0,12.78,6.03,12.78,13.44
			C604.38,241.7,598.64,247.65,591.6,247.65z M591.6,222.12c-6.38,0-11.57,5.51-11.57,12.28c0,6.67,5.19,12.09,11.57,12.09
			c6.4,0,11.62-5.42,11.62-12.09C603.21,227.63,598,222.12,591.6,222.12z M591.6,245.99c-6.06,0-10.98-5.2-10.98-11.6
			c0-6.5,4.93-11.79,10.98-11.79c6.06,0,10.98,5.29,10.98,11.79C602.58,240.79,597.65,245.99,591.6,245.99z M591.6,223.77
			c-5.41,0-9.82,4.76-9.82,10.62c0,5.75,4.4,10.43,9.82,10.43c5.41,0,9.82-4.68,9.82-10.43
			C601.41,228.54,597.01,223.77,591.6,223.77z"/>
	</g>
	<g>
		<path class="st2" d="M625.43,244.23c-1.75,1.8-4.63,2.84-8.04,2.84c-6.15,0-10.5-2.69-11.3-7.66h1.75c0.85,3.92,4.35,6,9.5,6
			c2.93,0,5.39-0.95,6.81-2.41c0.85-0.9,1.27-2.08,1.18-3.35c-0.09-2.98-2.5-4.49-8.46-5.34c-4.21-0.62-9.41-1.32-9.5-6.15
			c0-3.31,3.12-6.62,9.22-6.62c5.39,0,8.93,2.41,9.97,6.81h-1.8c-0.99-3.26-3.78-5.15-8.13-5.15c-4.4,0-7.52,2.13-7.47,4.96
			c0.05,2.79,2.6,3.69,7.99,4.44c5.06,0.76,9.74,2.08,9.97,7C627.18,241.3,626.62,243,625.43,244.23z"/>
		<path class="st2" d="M617.39,247.65c-6.61,0-11.05-3.05-11.87-8.15l-0.11-0.68h2.9l0.1,0.46c0.78,3.58,3.95,5.54,8.94,5.54
			c2.65,0,5.04-0.83,6.39-2.23c0.74-0.78,1.1-1.81,1.02-2.91c-0.07-2.22-1.45-3.88-7.96-4.81l-0.14-0.02
			c-4.12-0.6-9.76-1.43-9.86-6.69c0-3.59,3.37-7.21,9.8-7.21c5.69,0,9.43,2.58,10.54,7.26l0.17,0.72h-2.96l-0.13-0.41
			c-0.94-3.1-3.56-4.74-7.57-4.74c-2.5,0-4.63,0.72-5.86,1.96c-0.68,0.7-1.04,1.53-1.02,2.41c0.04,2.17,1.79,3.08,7.49,3.88
			c5.29,0.79,10.22,2.25,10.47,7.55c0.06,1.93-0.62,3.78-1.86,5.07l0,0C623.99,246.55,620.91,247.65,617.39,247.65z M606.81,239.99
			c1,4.14,4.82,6.49,10.59,6.49c3.2,0,5.97-0.97,7.62-2.66c1.02-1.06,1.59-2.6,1.54-4.21c-0.2-4.19-3.93-5.61-9.48-6.44
			c-4.77-0.67-8.43-1.46-8.49-5.01c-0.02-1.2,0.45-2.32,1.36-3.24c1.45-1.47,3.89-2.31,6.69-2.31c4.34,0,7.36,1.82,8.55,5.15h0.61
			c-1.18-3.65-4.42-5.64-9.21-5.64c-5.94,0-8.64,3.13-8.64,6.04c0.08,4.26,4.75,4.95,8.87,5.55l0.14,0.02
			c6.26,0.89,8.85,2.6,8.96,5.9c0.1,1.4-0.37,2.75-1.34,3.77c-1.6,1.65-4.23,2.59-7.23,2.59c-5.3,0-8.9-2.18-9.96-6H606.81z"/>
	</g>
</g>
<g>
	<path class="st3" d="M27.36,298.99h-2.43v-19.88h8.36c4.1,0,6.39,2.49,6.39,6.02c0,3.49-2.29,6.02-6.39,6.02h-5.93V298.99z
		 M27.36,281.43v7.39h5.93c2.32,0,3.98-1.09,3.98-3.69c0-2.61-1.66-3.69-3.98-3.69H27.36z"/>
	<path class="st3" d="M86.01,298.99h-2.4v-4.87c0-1.29-0.37-2.98-3.38-2.98h-6.39v7.85H71.4v-19.88h8.79c4.07,0,6.42,2.46,6.42,6.02
		c0,2.12-1,3.84-2.69,4.84c1.35,0.77,2.09,2.17,2.09,4.15V298.99z M80.28,288.79c2.23,0,3.89-1.32,3.89-3.67
		c0-2.49-1.49-3.69-3.98-3.69h-6.36v7.36H80.28z"/>
	<path class="st3" d="M133.29,279.11v2.32h-11.77v6.02h10.62v2.31h-10.62v6.87h11.77v2.35h-14.2v-19.88H133.29z"/>
	<path class="st3" d="M184.61,298.99h-2.43v-16.64l-5.81,16.64h-2.6l-5.81-16.64v16.64h-2.43v-19.88h3.72l5.84,16.75l5.84-16.75
		h3.69V298.99z"/>
	<path class="st3" d="M220.47,298.99h-2.43v-19.88h2.43V298.99z"/>
	<path class="st3" d="M261.16,296.98c3.35,0,5.18-2.17,5.18-5.13v-12.75h2.43v12.75c0,4.41-3.09,7.48-7.62,7.48
		c-4.55,0-7.62-3.07-7.62-7.48v-12.75h2.41v12.75C255.95,294.81,257.84,296.98,261.16,296.98z"/>
	<path class="st3" d="M320.85,298.99h-2.43v-16.64l-5.81,16.64h-2.6l-5.81-16.64v16.64h-2.43v-19.88h3.72l5.84,16.75l5.84-16.75
		h3.69V298.99z"/>
	<path class="st3" d="M399.77,299.33c-5.44,0-9.85-4.64-9.85-10.37c0-5.7,4.41-10.34,9.85-10.34c4.52,0,7.85,2.69,9.11,6.61h-2.55
		c-1.09-2.49-3.32-4.29-6.56-4.29c-4.1,0-7.45,3.64-7.45,8.02s3.35,8.02,7.45,8.02c2.92,0,5.36-1.66,6.56-4.3h2.55
		C407.53,296.73,404.04,299.33,399.77,299.33z"/>
	<path class="st3" d="M443.19,293.2l-2.12,5.78h-2.64l7.5-19.88h2.75l7.36,19.88h-2.72l-2.09-5.78H443.19z M447.26,282.09
		l-3.23,8.85h6.42L447.26,282.09z"/>
	<path class="st3" d="M492.33,281.43v17.56h-2.43v-17.56h-6.24v-2.32h14.92v2.32H492.33z"/>
	<path class="st3" d="M544.25,279.11v2.32h-11.77v6.02h10.62v2.31h-10.62v6.87h11.77v2.35h-14.2v-19.88H544.25z"/>
	<path class="st3" d="M591.08,298.99h-2.4v-4.87c0-1.29-0.37-2.98-3.38-2.98h-6.39v7.85h-2.43v-19.88h8.79
		c4.07,0,6.42,2.46,6.42,6.02c0,2.12-1,3.84-2.69,4.84c1.35,0.77,2.09,2.17,2.09,4.15V298.99z M585.35,288.79
		c2.23,0,3.89-1.32,3.89-3.67c0-2.49-1.49-3.69-3.98-3.69h-6.36v7.36H585.35z"/>
	<path class="st3" d="M626.7,298.99h-2.43v-19.88h2.43V298.99z"/>
	<path class="st3" d="M675.93,298.99h-2.69l-10.68-16.18v16.18h-2.43v-19.88h2.72l10.68,16.16v-16.16h2.41V298.99z"/>
	<path class="st3" d="M727.62,288.16v10.83h-2.35v-3.38c-1.43,2.15-3.92,3.72-7.3,3.72c-5.47,0-9.88-4.64-9.88-10.37
		c0-5.7,4.41-10.34,9.88-10.34c4.24,0,7.68,2.55,9.14,6.61h-2.58c-1.26-2.66-3.64-4.26-6.56-4.26c-4.12,0-7.47,3.64-7.47,7.99
		c0,4.38,3.35,8.02,7.47,8.02c4.24,0,6.85-3.15,7.28-6.47h-7.13v-2.35H727.62z"/>
</g>
</svg>
