<!-- Generator: Adobe Illustrator 18.1.0, SVG Export Plug-In  -->
<svg version="1.1"
	 xmlns="http://www.w3.org/2000/svg" xmlns:xlink="http://www.w3.org/1999/xlink" xmlns:a="http://ns.adobe.com/AdobeSVGViewerExtensions/3.0/"
	 x="0px" y="0px" width="381.331px" height="229.45px" viewBox="0 0 381.331 229.45" enable-background="new 0 0 381.331 229.45"
	 xml:space="preserve">
<defs>
</defs>
<g>
	<g>
		<path fill="#B0016D" d="M259.855,89.172c0,0.87-0.108,1.645-0.326,2.324c0.082,0.897,0.307,1.679,0.674,2.345
			s0.796,1.229,1.286,1.691s1.218,1.02,2.185,1.671c0.966,0.652,1.531,1.033,1.694,1.142c-1.852,4.036-5.083,7.234-9.697,9.592
			c-4.614,2.359-9.63,3.62-15.047,3.784c-7.269-0.164-13.291-2.157-18.068-5.982c-4.778-3.824-7.507-9.235-8.188-16.231
			c0.136-5.008,1.634-9.834,4.492-14.475c2.857-4.641,6.886-8.412,12.086-11.311c5.199-2.899,11.052-4.349,17.559-4.349
			c6.995,0.109,12.215,0.375,15.659,0.796c3.443,0.422,8.989,1.184,16.639,2.287s13.325,1.695,17.027,1.776
			c2.749-2.75,6.146-5.166,10.188-7.248c4.043-2.083,7.67-3.124,10.882-3.124c2.505,0,4.553,0.824,6.146,2.47
			c1.593,1.647,2.389,3.668,2.389,6.064c0,5.444-6.07,8.344-18.211,8.697c-0.816-0.082-2.001-0.177-3.553-0.286
			c-1.552-0.108-3.049-0.231-4.491-0.367c-1.443-0.136-2.776-0.312-4.002-0.531c-0.816,1.116-2.15,2.893-4.001,5.329
			c-1.852,2.437-3.472,4.675-4.859,6.717c6.451,4.057,9.677,9.296,9.677,15.721c0,3.866-1.082,7.397-3.246,10.596
			c-2.164,3.199-4.988,5.717-8.473,7.554s-7.159,2.756-11.024,2.756c-0.872,0-2.097-0.108-3.675-0.327l-11.025,31.604
			c-2.26,6.561-6.54,12.597-12.842,18.109s-13.809,9.868-22.52,13.066c-8.711,3.199-17.613,4.798-26.704,4.798
			c-6.098,0-11.862-0.98-17.293-2.94c-5.431-1.96-9.896-5.016-13.393-9.167c-3.498-4.151-5.369-9.371-5.614-15.659
			c0.245-5.662,2.116-10.541,5.614-14.639c3.498-4.096,7.928-7.193,13.291-9.289s10.821-3.144,16.374-3.144h2.695
			c4.41-5.825,10.079-10.072,17.007-12.74c6.928-2.667,15.7-4.002,26.317-4.002c12.194,0.218,19.163,0.545,20.906,0.98
			c0.653-0.217,1.319-0.327,2-0.327c3.403-9.8,8.861-20.104,16.374-30.911c-3.756-0.462-6.602-0.693-8.534-0.693
			c-4.709,0-8.282,0.707-10.718,2.12C261.074,86.835,259.855,88.085,259.855,89.172z M252.67,146.714l11.719-28.46
			c-1.008,0-2.179,0.109-3.512,0.327c-1.089,0-3.988-0.054-8.697-0.164c-4.71-0.108-8.671-0.163-11.883-0.163
			c-9.064,0-15.693,0.612-19.886,1.837c-3.103,1.062-5.777,2.437-8.023,4.124c-2.246,1.688-4.935,4.057-8.064,7.105
			c3.321,0.463,6.594,1.735,9.82,3.818c3.226,2.082,5.88,4.695,7.963,7.84c2.082,3.144,3.123,6.336,3.123,9.575
			c0,3.648-1.266,6.622-3.797,8.922c-2.532,2.3-5.159,3.45-7.881,3.45c-3.485,0-6.52-0.925-9.106-2.776
			c-2.586-1.851-4.56-4.294-5.921-7.33c-1.361-3.035-2.042-6.186-2.042-9.453c0-3.729,0.884-7.744,2.654-12.046
			c-6.751,0-12.556,1.171-17.415,3.512c-4.859,2.341-8.541,5.424-11.045,9.249c-2.505,3.825-3.825,7.929-3.961,12.311
			c0.19,5.39,1.81,9.8,4.859,13.229c3.048,3.43,6.914,5.982,11.596,7.656c4.682,1.674,9.677,2.688,14.986,3.042
			c6.914-0.136,13.904-1.463,20.967-3.981c7.064-2.518,13.583-6.438,19.56-11.76C244.659,161.258,249.321,154.636,252.67,146.714z
			 M203.016,133.485c-1.906,2.695-2.858,6.315-2.858,10.861c0,4.519,1.231,8.521,3.695,12.005c2.463,3.485,5.465,5.227,9.004,5.227
			c1.96-0.082,3.899-0.973,5.818-2.675c1.92-1.701,2.879-3.818,2.879-6.349c0-2.313-0.878-4.893-2.634-7.738
			c-1.756-2.844-4.069-5.335-6.941-7.473C209.107,135.207,206.119,133.92,203.016,133.485z M292.807,69.909
			c-1.225,0-2.831-0.136-4.818-0.409c-1.987-0.271-5.091-0.735-9.31-1.388c-4.22-0.653-8.936-1.34-14.148-2.062
			c-5.213-0.721-10.338-1.327-15.373-1.817c-5.962,0-11.223,1.266-15.782,3.796s-8.051,5.816-10.474,9.857
			c-2.423,4.04-3.702,8.237-3.838,12.591c0.299,5.708,2.341,10.084,6.124,13.128c3.784,3.044,8.603,4.851,14.455,5.421
			c4.709-0.135,9.174-1.25,13.394-3.342c4.219-2.093,6.832-4.036,7.84-5.83c-3.349-2.446-5.186-5.232-5.513-8.357
			c0.871-3.806,2.98-6.627,6.329-8.463c3.349-1.835,7.309-2.753,11.883-2.753c5.553,0,9.228,0.449,11.024,1.348
			c0.599-0.843,1.552-2.178,2.858-4.001s2.436-3.423,3.389-4.798C291.8,71.454,292.454,70.48,292.807,69.909z M272.921,114.252
			c2.913,0,6.085-0.518,9.515-1.554s6.41-2.639,8.942-4.807c2.531-2.168,3.905-4.847,4.124-8.038c0-6.739-3.077-11.753-9.229-15.041
			C280.476,94.803,276.025,104.616,272.921,114.252z M322.248,61.416c-0.653-2.014-2.383-3.022-5.186-3.022
			c-1.606,0-3.376,0.416-5.309,1.246c-1.933,0.831-3.784,1.77-5.553,2.817c-1.771,1.048-3.172,1.872-4.206,2.47
			c0.626,0.082,3.92,0.409,9.882,0.98C318.791,65.526,322.248,64.029,322.248,61.416z"/>
	</g>
	<g>
		<path fill="#2F4A96" d="M87.177,69.742c0.571-2.341,1.973-5.077,4.206-8.208c2.232-3.13,4.879-6.084,7.942-8.861
			c3.062-2.776,6.09-4.832,9.085-6.166c8.738-3.92,17.272-5.88,25.602-5.88h5.186c-0.898-2.124-1.348-4.519-1.348-7.187
			c0.108-6.833,2.231-12.801,6.37-17.905c4.138-5.104,9.568-8.969,16.292-11.596C167.235,1.313,174.408,0,182.03,0
			c2.341,0,4.069,0.055,5.186,0.164c4.465,0.408,8.378,1.178,11.74,2.307c3.361,1.13,6.117,2.321,8.269,3.573
			c2.149,1.252,3.565,2.083,4.246,2.491c4.055-1.96,7.301-3.423,9.738-4.39c2.437-0.966,5.043-1.45,7.819-1.45
			c2.45,0,3.676,0.559,3.676,1.674c0,0.653-0.266,1.062-0.797,1.225c-0.53,0.163-1.497,0.259-2.898,0.286
			c-1.402,0.027-2.853,0.164-4.349,0.408c-1.498,0.245-2.995,0.722-4.492,1.429c-2.015,0.817-3.975,1.987-5.88,3.512
			c2.994,2.287,5.39,5.397,7.187,9.33c1.797,3.934,2.695,8.12,2.695,12.556c0,6.017-1.98,11.413-5.941,16.19
			s-9.119,8.487-15.475,11.127c-6.356,2.641-12.938,3.961-19.742,3.961c13.066,6.941,19.6,15.802,19.6,26.582
			c0,6.043-1.661,11.453-4.981,16.231c-3.321,4.777-7.677,8.772-13.066,11.984c-5.391,3.212-11.127,5.614-17.211,7.207
			c-6.084,1.593-11.903,2.389-17.456,2.389c-1.008,0-1.838,0.109-2.491,0.327c-3.239-0.354-4.858-1.075-4.858-2.164
			c0-1.116,1.062-1.674,3.185-1.674c12.549,0,23.499-2.688,32.85-8.064c9.351-5.376,15.073-13.89,17.17-25.541
			c0.218-1.796,0.327-3.076,0.327-3.838c0-5.554-1.934-10.317-5.799-14.292c-3.865-3.974-8.452-6.914-13.76-8.82
			c-0.6,1.497-2.076,4.73-4.431,9.698c-2.354,4.968-5.07,10.882-8.146,17.742c-3.321,7.405-8.269,14.128-14.842,20.171
			c-6.574,6.043-14.196,10.8-22.867,14.271c-8.67,3.471-17.619,5.207-26.847,5.207c-7.377,0-14.516-1.219-21.417-3.655
			c-6.9-2.436-12.576-6.233-17.027-11.392c-4.451-5.158-6.799-11.576-7.044-19.252c0.327-5.335,1.98-10.113,4.961-14.333
			c2.98-4.219,6.962-7.513,11.943-9.881S81.242,69.742,87.177,69.742z M208.776,10.861c-4.737-2.64-8.732-4.573-11.984-5.798
			c-3.254-1.225-7.738-1.905-13.455-2.042c-7.486,0-14.434,1.273-20.845,3.818c-6.411,2.546-11.535,6.058-15.373,10.535
			c-3.839,4.478-5.812,9.507-5.921,15.087c0,2.776,0.503,5.622,1.511,8.534c4.138,0.49,7.792,1.729,10.964,3.716
			c3.171,1.987,4.757,4.083,4.757,6.288c0,2.559-2.056,4.124-6.166,4.696c-2.559-0.136-5.022-1.504-7.391-4.104
			c-2.368-2.599-3.702-4.525-4.002-5.778l-0.653-1.674c-0.108,0-1.007-0.054-2.694-0.164c-1.688-0.108-3.308-0.163-4.859-0.163
			c-9.038,0-17.184,2.293-24.438,6.88S95.18,61.63,90.852,69.742c3.457,0.67,5.526,1.111,6.207,1.326
			c3.647,1.062,7.452,3.03,11.413,5.903c3.961,2.874,7.228,6.19,9.8,9.949c2.573,3.758,3.859,7.395,3.859,10.907
			c0,3.841-1.593,7.089-4.777,9.744c-3.185,2.656-6.888,3.983-11.106,3.983c-4.492,0-8.33-1.369-11.515-4.108
			c-3.185-2.738-5.567-6.199-7.146-10.382c-1.579-4.183-2.437-8.509-2.572-12.978c0.435-5.178,0.993-9.129,1.674-11.854h-3.021
			c-4.546,0-8.766,1.09-12.658,3.271c-3.893,2.181-7.043,5.131-9.453,8.85c-2.409,3.72-3.736,7.774-3.981,12.162
			c0.245,6.781,2.375,12.514,6.39,17.198c4.015,4.684,9.105,8.225,15.271,10.621c6.166,2.396,12.556,3.771,19.171,4.125
			c9.228-0.108,17.864-2.436,25.908-6.982c8.043-4.545,15.026-10.296,20.947-17.251c5.921-6.955,10.65-14.216,14.189-21.784
			c1.688-3.702,2.987-6.444,3.899-8.228c0.912-1.783,2.035-3.872,3.369-6.268c1.333-2.395,2.082-3.743,2.245-4.042
			c-1.062-0.299-2.191-0.619-3.389-0.959c-1.198-0.34-2.239-0.81-3.124-1.409c-0.885-0.599-1.327-1.375-1.327-2.328
			c0-0.435,0.776-0.653,2.328-0.653c2.177,0,4.736,0.327,7.676,0.98c0.898-1.361,2.409-3.933,4.533-7.717
			c2.123-3.783,3.994-7.009,5.614-9.677c1.619-2.667,3.368-5.227,5.247-7.676C192.783,25.833,200.201,17.966,208.776,10.861z
			 M89.872,72.233l-1.021,4.333c-0.109,0.518-0.225,1.397-0.347,2.637c-0.123,1.24-0.225,2.2-0.307,2.882
			c0.136,4.115,0.946,8.122,2.43,12.019c1.483,3.897,3.579,7.113,6.288,9.647c2.708,2.535,5.819,3.802,9.331,3.802
			c3.13,0,6.036-1.015,8.718-3.045c2.681-2.03,4.022-4.585,4.022-7.665c-0.245-3.107-1.674-6.404-4.288-9.893
			s-5.887-6.548-9.82-9.178c-3.934-2.63-7.711-4.258-11.331-4.885L89.872,72.233z M145.036,46.508
			c1.96,3.103,4.138,4.833,6.533,5.186c0.381-0.136,0.81-0.271,1.286-0.408c0.477-0.136,0.885-0.292,1.226-0.47
			c0.34-0.176,0.51-0.388,0.51-0.633c0-0.925-0.959-1.96-2.878-3.103c-1.92-1.144-3.805-1.892-5.655-2.246l-2.328-0.694
			L145.036,46.508z M169.985,61.902c-1.334-0.68-3.009-1.021-5.022-1.021c0.843,0.164,1.681,0.333,2.511,0.51
			C168.304,61.569,169.141,61.739,169.985,61.902z M211.471,13.557c-5.88,4.655-10.616,9.058-14.21,13.209
			c-3.593,4.152-6.792,8.834-9.596,14.046c-2.804,5.213-6.139,12.352-10.004,21.417c1.334,0,2.341,0.109,3.021,0.327
			c5.907-0.218,11.828-1.667,17.763-4.349c5.934-2.681,10.786-6.431,14.556-11.25c3.771-4.818,5.655-10.317,5.655-16.497
			C218.657,23.33,216.261,17.694,211.471,13.557z"/>
	</g>
</g>
<g>
	<path d="M0,195.487c0-0.371,0.129-0.687,0.386-0.944c0.258-0.258,0.572-0.387,0.945-0.387h11.035c1.001,0,1.946,0.193,2.833,0.58
		s1.667,0.916,2.34,1.589c0.672,0.673,1.202,1.453,1.588,2.34c0.387,0.888,0.58,1.832,0.58,2.834c0,1.288-0.294,2.469-0.88,3.542
		c-0.587,1.073-1.367,1.939-2.34,2.598c1.002,0.687,1.817,1.582,2.447,2.684c0.629,1.103,0.945,2.326,0.945,3.671
		c0,1.06-0.193,2.047-0.58,2.963s-0.923,1.725-1.61,2.426s-1.488,1.252-2.404,1.653c-0.917,0.4-1.889,0.615-2.919,0.644H1.331
		c-0.373,0-0.687-0.129-0.945-0.387C0.129,221.035,0,220.72,0,220.348V195.487z M11.207,207.596c0-0.372,0.121-0.68,0.365-0.923
		c0.243-0.243,0.551-0.365,0.923-0.365c0.629-0.028,1.23-0.172,1.803-0.43c0.572-0.257,1.073-0.601,1.502-1.03
		c0.43-0.43,0.766-0.923,1.009-1.481c0.243-0.558,0.365-1.166,0.365-1.824c0-0.63-0.129-1.23-0.386-1.804
		c-0.258-0.572-0.608-1.073-1.052-1.503c-0.444-0.429-0.959-0.772-1.545-1.03c-0.587-0.258-1.196-0.387-1.825-0.387H2.662v22.198
		h9.704c0.658,0,1.281-0.136,1.868-0.408c0.586-0.271,1.095-0.637,1.524-1.095c0.43-0.457,0.773-0.994,1.031-1.609
		c0.257-0.615,0.386-1.252,0.386-1.911c0-1.202-0.394-2.29-1.181-3.263c-0.788-0.974-1.954-1.589-3.499-1.847
		c-0.373,0-0.681-0.121-0.923-0.365C11.328,208.276,11.207,207.968,11.207,207.596z"/>
	<path d="M32.202,200.897c1.374,0,2.684,0.279,3.929,0.838c1.245,0.558,2.34,1.31,3.285,2.254c0.945,0.944,1.696,2.047,2.254,3.306
		c0.558,1.26,0.837,2.605,0.837,4.036v9.06c0,0.372-0.128,0.687-0.386,0.944s-0.573,0.387-0.945,0.387s-0.687-0.129-0.944-0.387
		c-0.258-0.258-0.387-0.572-0.387-0.944v-2.619c-0.944,1.06-2.082,1.969-3.413,2.727c-1.331,0.759-2.77,1.138-4.315,1.138
		c-1.432,0-2.77-0.258-4.015-0.772c-1.245-0.516-2.34-1.23-3.285-2.147c-0.945-0.915-1.689-2.003-2.233-3.263
		c-0.544-1.26-0.815-2.634-0.815-4.122c0-1.431,0.264-2.77,0.794-4.015c0.529-1.245,1.259-2.332,2.19-3.263
		c0.93-0.93,2.032-1.675,3.306-2.233C29.332,201.263,30.713,200.955,32.202,200.897z M24.431,211.331c0,1.06,0.2,2.055,0.601,2.984
		c0.4,0.931,0.951,1.746,1.653,2.447c0.701,0.701,1.517,1.252,2.447,1.653c0.93,0.4,1.925,0.601,2.984,0.601
		c1.03,0,2.003-0.193,2.919-0.579c0.916-0.387,1.724-0.924,2.426-1.61c0.701-0.688,1.259-1.495,1.675-2.426
		c0.415-0.93,0.65-1.954,0.708-3.07c0-1.059-0.2-2.061-0.601-3.006c-0.401-0.944-0.952-1.767-1.653-2.469
		c-0.702-0.701-1.524-1.252-2.469-1.652c-0.945-0.401-1.947-0.602-3.005-0.602c-1.06,0-2.055,0.2-2.984,0.602
		c-0.93,0.4-1.746,0.951-2.447,1.652c-0.702,0.702-1.252,1.524-1.653,2.469C24.63,209.271,24.431,210.272,24.431,211.331z"/>
	<path d="M44.653,211.159c0-1.431,0.272-2.776,0.816-4.036c0.543-1.259,1.281-2.354,2.211-3.284c0.93-0.93,2.024-1.667,3.284-2.211
		c1.259-0.544,2.604-0.816,4.036-0.816c1.431,0,2.776,0.272,4.036,0.816c1.259,0.544,2.354,1.281,3.285,2.211
		c0.93,0.931,1.667,2.025,2.211,3.284c0.543,1.26,0.816,2.605,0.816,4.036v9.188c0,0.372-0.129,0.688-0.386,0.944
		c-0.258,0.258-0.573,0.387-0.945,0.387c-0.372,0-0.687-0.129-0.944-0.387c-0.258-0.257-0.387-0.572-0.387-0.944v-9.188
		c0-1.059-0.201-2.054-0.601-2.983c-0.401-0.931-0.952-1.746-1.653-2.448c-0.702-0.7-1.518-1.251-2.447-1.652
		c-0.931-0.4-1.926-0.602-2.984-0.602c-1.059,0-2.054,0.201-2.984,0.602c-0.931,0.401-1.747,0.952-2.447,1.652
		c-0.702,0.702-1.253,1.518-1.653,2.448c-0.401,0.93-0.601,1.925-0.601,2.983v9.188c0,0.372-0.129,0.688-0.386,0.944
		c-0.258,0.258-0.573,0.387-0.945,0.387c-0.372,0-0.687-0.129-0.944-0.387c-0.258-0.257-0.387-0.572-0.387-0.944V211.159z"/>
	<path d="M77.027,221.679c-1.374,0-2.683-0.279-3.928-0.837c-1.245-0.559-2.34-1.31-3.285-2.255
		c-0.945-0.944-1.696-2.046-2.254-3.306c-0.558-1.259-0.837-2.604-0.837-4.036c0-1.402,0.271-2.727,0.815-3.972
		c0.543-1.245,1.281-2.34,2.211-3.284c0.93-0.944,2.024-1.688,3.285-2.232c1.259-0.544,2.619-0.816,4.079-0.816
		c1.402,0,2.733,0.258,3.993,0.773c1.259,0.515,2.361,1.23,3.306,2.146c0.944,0.916,1.688,2.004,2.232,3.263
		c0.543,1.26,0.816,2.634,0.816,4.122v16.874c0,0.372-0.129,0.687-0.386,0.944c-0.258,0.258-0.573,0.387-0.945,0.387
		c-0.372,0-0.687-0.129-0.944-0.387c-0.258-0.258-0.387-0.572-0.387-0.944v-10.348c-0.944,1.03-2.076,1.926-3.392,2.684
		C80.09,221.214,78.63,221.622,77.027,221.679z M84.798,211.245c0-1.059-0.2-2.054-0.601-2.984c-0.401-0.93-0.952-1.745-1.653-2.447
		c-0.702-0.701-1.518-1.252-2.447-1.652c-0.931-0.4-1.926-0.602-2.984-0.602c-1.059,0-2.061,0.201-3.005,0.602
		s-1.768,0.951-2.469,1.652c-0.702,0.702-1.252,1.518-1.653,2.447c-0.401,0.931-0.601,1.926-0.601,2.984
		c0,1.06,0.2,2.062,0.601,3.006s0.952,1.768,1.653,2.469c0.701,0.701,1.524,1.252,2.469,1.653c0.945,0.4,1.946,0.601,3.005,0.601
		c1.031,0,2.003-0.193,2.92-0.579c0.916-0.387,1.717-0.924,2.404-1.61c0.687-0.688,1.238-1.503,1.653-2.447
		C84.505,213.392,84.741,212.361,84.798,211.245z"/>
	<path d="M89.693,202.143c0-0.371,0.129-0.687,0.387-0.944c0.257-0.258,0.572-0.387,0.944-0.387c0.372,0,0.687,0.129,0.945,0.387
		c0.257,0.258,0.386,0.573,0.386,0.944v9.188c0,1.06,0.2,2.055,0.601,2.984c0.4,0.931,0.952,1.746,1.653,2.447
		c0.701,0.701,1.517,1.252,2.447,1.653c0.93,0.4,1.925,0.601,2.984,0.601c1.059,0,2.054-0.2,2.984-0.601
		c0.93-0.401,1.746-0.952,2.447-1.653c0.701-0.701,1.252-1.517,1.653-2.447c0.4-0.93,0.601-1.925,0.601-2.984v-9.188
		c0-0.371,0.129-0.687,0.387-0.944c0.257-0.258,0.572-0.387,0.944-0.387c0.372,0,0.687,0.129,0.945,0.387
		c0.257,0.258,0.386,0.573,0.386,0.944v9.188c0,1.432-0.272,2.776-0.816,4.036c-0.544,1.26-1.281,2.354-2.211,3.284
		c-0.931,0.931-2.025,1.668-3.285,2.212c-1.26,0.544-2.605,0.815-4.036,0.815c-1.432,0-2.777-0.271-4.036-0.815
		c-1.26-0.544-2.354-1.281-3.284-2.212c-0.931-0.93-1.668-2.024-2.211-3.284c-0.544-1.26-0.816-2.604-0.816-4.036V202.143z"/>
	<path d="M115.111,212.576c0.143,0.917,0.443,1.768,0.902,2.555c0.458,0.788,1.023,1.468,1.696,2.04
		c0.672,0.572,1.438,1.023,2.297,1.352c0.858,0.33,1.76,0.494,2.705,0.494c1.059,0,2.046-0.193,2.963-0.579
		c0.916-0.387,1.731-0.924,2.447-1.61c0.258-0.258,0.572-0.387,0.945-0.387c0.372,0,0.687,0.129,0.944,0.387
		s0.386,0.572,0.386,0.944s-0.128,0.688-0.386,0.944c-0.944,1.06-2.011,1.811-3.199,2.255c-1.188,0.443-2.555,0.665-4.101,0.665
		c-1.432,0-2.769-0.258-4.014-0.772c-1.245-0.516-2.34-1.23-3.285-2.147c-0.945-0.915-1.689-2.003-2.233-3.263
		c-0.544-1.26-0.815-2.634-0.815-4.122c0-1.431,0.264-2.77,0.794-4.015c0.529-1.245,1.259-2.332,2.19-3.263
		c0.93-0.93,2.032-1.675,3.306-2.233c1.273-0.558,2.655-0.865,4.143-0.923c1.374,0,2.669,0.272,3.886,0.816
		c1.216,0.544,2.297,1.273,3.242,2.189c0.945,0.916,1.696,1.989,2.254,3.22c0.558,1.231,0.865,2.548,0.923,3.95
		c0.057,0.487-0.064,0.859-0.365,1.116c-0.301,0.258-0.623,0.387-0.966,0.387H115.111z M122.71,203.603
		c-0.944,0-1.839,0.165-2.683,0.494c-0.845,0.329-1.604,0.772-2.276,1.331c-0.673,0.558-1.231,1.224-1.674,1.996
		c-0.444,0.773-0.751,1.604-0.923,2.49h15.157c-0.172-0.887-0.487-1.717-0.945-2.49c-0.458-0.772-1.024-1.438-1.696-1.996
		c-0.673-0.559-1.432-1.002-2.276-1.331C124.549,203.768,123.655,203.603,122.71,203.603z"/>
	<path d="M135.033,195.444c0-0.371,0.129-0.687,0.387-0.944c0.257-0.258,0.572-0.387,0.944-0.387c0.372,0,0.687,0.129,0.945,0.387
		c0.257,0.258,0.386,0.573,0.386,0.944v5.281h9.489c0.458,0,0.823,0.129,1.095,0.387c0.271,0.258,0.408,0.573,0.408,0.944
		c0,0.373-0.136,0.688-0.408,0.945c-0.272,0.257-0.638,0.386-1.095,0.386h-9.489v7.943c0,1.06,0.2,2.055,0.601,2.984
		c0.4,0.931,0.951,1.746,1.653,2.447c0.701,0.701,1.517,1.252,2.447,1.653c0.93,0.4,1.925,0.601,2.984,0.601
		c1.059,0,2.046-0.193,2.963-0.579c0.916-0.387,1.717-0.924,2.404-1.61c0.229-0.258,0.522-0.408,0.88-0.451s0.694,0.051,1.009,0.279
		c0.229,0.229,0.372,0.516,0.429,0.858c0.057,0.344-0.015,0.673-0.215,0.987c-0.944,1.003-2.061,1.782-3.349,2.341
		c-1.288,0.558-2.662,0.837-4.122,0.837c-1.432,0-2.777-0.271-4.036-0.815c-1.26-0.544-2.354-1.281-3.284-2.212
		c-0.931-0.93-1.668-2.024-2.211-3.284c-0.544-1.26-0.816-2.604-0.816-4.036V195.444z"/>
	<path d="M156.329,212.576c0.143,0.917,0.443,1.768,0.901,2.555c0.458,0.788,1.023,1.468,1.696,2.04
		c0.672,0.572,1.438,1.023,2.297,1.352c0.859,0.33,1.761,0.494,2.705,0.494c1.059,0,2.047-0.193,2.963-0.579
		c0.916-0.387,1.731-0.924,2.447-1.61c0.258-0.258,0.572-0.387,0.944-0.387s0.688,0.129,0.945,0.387
		c0.257,0.258,0.386,0.572,0.386,0.944s-0.129,0.688-0.386,0.944c-0.945,1.06-2.012,1.811-3.199,2.255
		c-1.188,0.443-2.555,0.665-4.101,0.665c-1.432,0-2.77-0.258-4.015-0.772c-1.245-0.516-2.34-1.23-3.284-2.147
		c-0.944-0.915-1.689-2.003-2.233-3.263c-0.543-1.26-0.815-2.634-0.815-4.122c0-1.431,0.264-2.77,0.794-4.015
		s1.259-2.332,2.19-3.263c0.93-0.93,2.032-1.675,3.306-2.233c1.273-0.558,2.655-0.865,4.144-0.923c1.374,0,2.669,0.272,3.886,0.816
		s2.297,1.273,3.242,2.189c0.944,0.916,1.695,1.989,2.254,3.22c0.558,1.231,0.865,2.548,0.923,3.95
		c0.058,0.487-0.064,0.859-0.365,1.116c-0.3,0.258-0.622,0.387-0.966,0.387H156.329z M163.929,203.603
		c-0.944,0-1.839,0.165-2.684,0.494s-1.604,0.772-2.275,1.331c-0.673,0.558-1.231,1.224-1.675,1.996
		c-0.443,0.773-0.751,1.604-0.923,2.49h15.156c-0.172-0.887-0.486-1.717-0.944-2.49c-0.458-0.772-1.023-1.438-1.696-1.996
		c-0.673-0.559-1.432-1.002-2.275-1.331C165.768,203.768,164.873,203.603,163.929,203.603z"/>
	<path d="M183.335,216.87c0.229-0.286,0.529-0.437,0.901-0.451c0.372-0.014,0.673,0.107,0.902,0.365
		c0.772,0.744,1.646,1.303,2.619,1.675c0.973,0.372,1.953,0.551,2.94,0.536c0.988-0.014,1.954-0.215,2.898-0.601
		c0.944-0.387,1.789-0.967,2.533-1.739s1.295-1.632,1.653-2.576c0.357-0.944,0.521-1.911,0.494-2.898
		c-0.029-0.987-0.236-1.953-0.623-2.898c-0.387-0.944-0.966-1.788-1.739-2.533c-0.772-0.743-1.631-1.294-2.576-1.652
		c-0.944-0.357-1.91-0.522-2.897-0.494c-0.988,0.029-1.961,0.243-2.92,0.645c-0.959,0.4-1.811,0.987-2.555,1.76l-7.085,6.87
		c-0.229,0.258-0.536,0.394-0.923,0.408s-0.693-0.107-0.923-0.365c-0.286-0.258-0.43-0.572-0.43-0.944s0.115-0.688,0.344-0.945
		l7.127-6.869c1.002-1.031,2.133-1.817,3.393-2.362c1.259-0.543,2.555-0.822,3.886-0.837c1.331-0.014,2.646,0.223,3.95,0.709
		c1.302,0.486,2.497,1.217,3.585,2.189c0.973,0.974,1.724,2.09,2.254,3.349c0.529,1.26,0.801,2.555,0.815,3.886
		s-0.214,2.641-0.687,3.929s-1.21,2.447-2.211,3.478c-1.003,1.031-2.126,1.812-3.371,2.341s-2.533,0.802-3.864,0.815
		c-1.331,0.015-2.641-0.222-3.929-0.708s-2.462-1.245-3.521-2.276c-0.286-0.257-0.43-0.564-0.43-0.923
		C182.948,217.393,183.077,217.1,183.335,216.87z"/>
	<path d="M213.088,202.229c0-0.371,0.129-0.687,0.387-0.944s0.572-0.387,0.944-0.387s0.688,0.129,0.945,0.387
		c0.257,0.258,0.386,0.573,0.386,0.944v9.618c0,1.002,0.193,1.939,0.58,2.812c0.387,0.874,0.908,1.632,1.567,2.276
		c0.658,0.644,1.423,1.152,2.297,1.524c0.873,0.372,1.81,0.558,2.812,0.558c1.001,0,1.938-0.186,2.812-0.558
		c0.872-0.372,1.638-0.881,2.297-1.524c0.658-0.645,1.173-1.402,1.546-2.276c0.371-0.872,0.558-1.81,0.558-2.812v-9.661
		c0-0.371,0.129-0.687,0.387-0.944s0.572-0.387,0.944-0.387s0.688,0.129,0.944,0.387c0.258,0.258,0.387,0.573,0.387,0.944v9.661
		c0,1.26-0.215,2.447-0.644,3.563c-0.43,1.116-1.031,2.111-1.804,2.984s-1.682,1.588-2.727,2.146
		c-1.045,0.558-2.168,0.923-3.37,1.095v6.483c0,0.372-0.129,0.687-0.387,0.944s-0.573,0.387-0.944,0.387
		c-0.373,0-0.688-0.129-0.945-0.387c-0.257-0.258-0.386-0.572-0.386-0.944v-6.44c-1.231-0.172-2.369-0.537-3.414-1.095
		c-1.045-0.559-1.953-1.273-2.726-2.146c-0.773-0.873-1.374-1.875-1.804-3.006s-0.645-2.325-0.645-3.585V202.229z"/>
	<path d="M244.56,195.444c0-0.371,0.129-0.687,0.387-0.944c0.257-0.258,0.572-0.387,0.944-0.387h15.113
		c0.372,0,0.688,0.129,0.944,0.387c0.258,0.258,0.387,0.573,0.387,0.944c0,0.373-0.129,0.688-0.387,0.945
		c-0.257,0.258-0.572,0.386-0.944,0.386h-13.782v11.035h9.446c0.371,0,0.687,0.129,0.944,0.387c0.258,0.257,0.387,0.572,0.387,0.944
		s-0.129,0.687-0.387,0.944s-0.573,0.387-0.944,0.387h-9.446v9.875c0,0.372-0.129,0.688-0.387,0.944
		c-0.258,0.258-0.572,0.387-0.944,0.387s-0.688-0.129-0.944-0.387c-0.258-0.257-0.387-0.572-0.387-0.944V195.444z"/>
	<path d="M263.064,196.218c0-0.486,0.172-0.901,0.516-1.245s0.758-0.516,1.245-0.516c0.486,0,0.901,0.172,1.245,0.516
		s0.516,0.759,0.516,1.245c0,0.487-0.172,0.901-0.516,1.245s-0.759,0.515-1.245,0.515c-0.487,0-0.901-0.171-1.245-0.515
		S263.064,196.705,263.064,196.218z M263.494,202.143c0-0.371,0.129-0.687,0.387-0.944s0.572-0.387,0.944-0.387
		s0.688,0.129,0.944,0.387c0.258,0.258,0.387,0.573,0.387,0.944v18.205c0,0.372-0.129,0.688-0.387,0.944
		c-0.257,0.258-0.572,0.387-0.944,0.387s-0.687-0.129-0.944-0.387c-0.258-0.257-0.387-0.572-0.387-0.944V202.143z"/>
	<path d="M270.964,212.576c0.143,0.917,0.443,1.768,0.901,2.555c0.458,0.788,1.023,1.468,1.696,2.04
		c0.672,0.572,1.438,1.023,2.297,1.352c0.859,0.33,1.761,0.494,2.705,0.494c1.059,0,2.047-0.193,2.963-0.579
		c0.916-0.387,1.731-0.924,2.447-1.61c0.258-0.258,0.572-0.387,0.944-0.387s0.688,0.129,0.945,0.387
		c0.257,0.258,0.386,0.572,0.386,0.944s-0.129,0.688-0.386,0.944c-0.945,1.06-2.012,1.811-3.199,2.255
		c-1.188,0.443-2.555,0.665-4.101,0.665c-1.432,0-2.77-0.258-4.015-0.772c-1.245-0.516-2.34-1.23-3.284-2.147
		c-0.944-0.915-1.689-2.003-2.232-3.263c-0.544-1.26-0.816-2.634-0.816-4.122c0-1.431,0.265-2.77,0.795-4.015
		c0.529-1.245,1.259-2.332,2.189-3.263c0.93-0.93,2.032-1.675,3.306-2.233c1.273-0.558,2.655-0.865,4.144-0.923
		c1.374,0,2.669,0.272,3.886,0.816s2.297,1.273,3.242,2.189c0.944,0.916,1.695,1.989,2.254,3.22c0.558,1.231,0.865,2.548,0.923,3.95
		c0.058,0.487-0.064,0.859-0.365,1.116c-0.3,0.258-0.622,0.387-0.966,0.387H270.964z M278.564,203.603
		c-0.944,0-1.839,0.165-2.684,0.494s-1.604,0.772-2.275,1.331c-0.673,0.558-1.231,1.224-1.675,1.996
		c-0.443,0.773-0.751,1.604-0.923,2.49h15.156c-0.172-0.887-0.486-1.717-0.944-2.49c-0.458-0.772-1.023-1.438-1.696-1.996
		c-0.673-0.559-1.432-1.002-2.275-1.331C280.403,203.768,279.508,203.603,278.564,203.603z"/>
	<path d="M297.97,216.87c0.229-0.286,0.529-0.437,0.901-0.451c0.372-0.014,0.673,0.107,0.902,0.365
		c0.772,0.744,1.646,1.303,2.619,1.675c0.973,0.372,1.953,0.551,2.94,0.536c0.988-0.014,1.954-0.215,2.898-0.601
		c0.944-0.387,1.789-0.967,2.533-1.739s1.295-1.632,1.653-2.576c0.357-0.944,0.521-1.911,0.494-2.898
		c-0.029-0.987-0.236-1.953-0.623-2.898c-0.387-0.944-0.966-1.788-1.739-2.533c-0.772-0.743-1.631-1.294-2.576-1.652
		c-0.944-0.357-1.91-0.522-2.897-0.494c-0.988,0.029-1.961,0.243-2.92,0.645c-0.959,0.4-1.811,0.987-2.555,1.76l-7.085,6.87
		c-0.229,0.258-0.536,0.394-0.923,0.408s-0.693-0.107-0.923-0.365c-0.286-0.258-0.43-0.572-0.43-0.944s0.115-0.688,0.344-0.945
		l7.127-6.869c1.002-1.031,2.133-1.817,3.393-2.362c1.259-0.543,2.555-0.822,3.886-0.837c1.331-0.014,2.646,0.223,3.95,0.709
		c1.302,0.486,2.497,1.217,3.585,2.189c0.973,0.974,1.724,2.09,2.254,3.349c0.529,1.26,0.801,2.555,0.815,3.886
		s-0.214,2.641-0.687,3.929s-1.21,2.447-2.211,3.478c-1.003,1.031-2.126,1.812-3.371,2.341s-2.533,0.802-3.864,0.815
		c-1.331,0.015-2.641-0.222-3.929-0.708s-2.462-1.245-3.521-2.276c-0.286-0.257-0.43-0.564-0.43-0.923
		C297.583,217.393,297.712,217.1,297.97,216.87z"/>
	<path d="M318.451,195.444c0-0.371,0.129-0.687,0.387-0.944s0.572-0.387,0.944-0.387s0.688,0.129,0.944,0.387
		c0.258,0.258,0.387,0.573,0.387,0.944v5.281h9.489c0.457,0,0.822,0.129,1.095,0.387c0.271,0.258,0.407,0.573,0.407,0.944
		c0,0.373-0.136,0.688-0.407,0.945c-0.272,0.257-0.638,0.386-1.095,0.386h-9.489v7.943c0,1.06,0.2,2.055,0.602,2.984
		c0.4,0.931,0.951,1.746,1.652,2.447s1.518,1.252,2.447,1.653c0.931,0.4,1.925,0.601,2.984,0.601c1.059,0,2.046-0.193,2.963-0.579
		c0.915-0.387,1.717-0.924,2.404-1.61c0.229-0.258,0.521-0.408,0.88-0.451c0.357-0.043,0.694,0.051,1.009,0.279
		c0.229,0.229,0.372,0.516,0.43,0.858c0.057,0.344-0.015,0.673-0.215,0.987c-0.944,1.003-2.061,1.782-3.349,2.341
		c-1.288,0.558-2.662,0.837-4.122,0.837c-1.432,0-2.776-0.271-4.036-0.815s-2.354-1.281-3.284-2.212
		c-0.931-0.93-1.668-2.024-2.212-3.284s-0.815-2.604-0.815-4.036V195.444z"/>
	<path d="M347.39,200.897c1.374,0,2.684,0.279,3.929,0.838c1.245,0.558,2.34,1.31,3.285,2.254c0.944,0.944,1.695,2.047,2.254,3.306
		c0.558,1.26,0.837,2.605,0.837,4.036v9.06c0,0.372-0.129,0.687-0.387,0.944c-0.257,0.258-0.572,0.387-0.944,0.387
		s-0.687-0.129-0.944-0.387s-0.387-0.572-0.387-0.944v-2.619c-0.944,1.06-2.082,1.969-3.413,2.727
		c-1.331,0.759-2.77,1.138-4.315,1.138c-1.432,0-2.77-0.258-4.015-0.772c-1.245-0.516-2.34-1.23-3.284-2.147
		c-0.944-0.915-1.689-2.003-2.232-3.263c-0.544-1.26-0.816-2.634-0.816-4.122c0-1.431,0.265-2.77,0.795-4.015
		c0.529-1.245,1.259-2.332,2.189-3.263c0.93-0.93,2.032-1.675,3.306-2.233C344.52,201.263,345.902,200.955,347.39,200.897z
		 M339.619,211.331c0,1.06,0.2,2.055,0.602,2.984c0.4,0.931,0.951,1.746,1.652,2.447s1.518,1.252,2.448,1.653
		c0.93,0.4,1.925,0.601,2.983,0.601c1.03,0,2.004-0.193,2.92-0.579c0.916-0.387,1.725-0.924,2.426-1.61
		c0.701-0.688,1.26-1.495,1.675-2.426c0.414-0.93,0.65-1.954,0.708-3.07c0-1.059-0.2-2.061-0.601-3.006
		c-0.401-0.944-0.952-1.767-1.653-2.469c-0.702-0.701-1.524-1.252-2.469-1.652c-0.944-0.401-1.947-0.602-3.006-0.602
		s-2.054,0.2-2.983,0.602c-0.931,0.4-1.747,0.951-2.448,1.652c-0.701,0.702-1.252,1.524-1.652,2.469
		C339.819,209.271,339.619,210.272,339.619,211.331z"/>
	<path d="M363.706,216.87c0.229-0.286,0.529-0.437,0.901-0.451c0.372-0.014,0.673,0.107,0.902,0.365
		c0.772,0.744,1.646,1.303,2.619,1.675c0.973,0.372,1.953,0.551,2.94,0.536c0.988-0.014,1.954-0.215,2.898-0.601
		c0.944-0.387,1.789-0.967,2.533-1.739s1.295-1.632,1.653-2.576c0.357-0.944,0.521-1.911,0.494-2.898
		c-0.029-0.987-0.236-1.953-0.623-2.898c-0.387-0.944-0.966-1.788-1.739-2.533c-0.772-0.743-1.631-1.294-2.576-1.652
		c-0.944-0.357-1.91-0.522-2.897-0.494c-0.988,0.029-1.961,0.243-2.92,0.645c-0.959,0.4-1.811,0.987-2.555,1.76l-7.085,6.87
		c-0.229,0.258-0.536,0.394-0.923,0.408s-0.693-0.107-0.923-0.365c-0.286-0.258-0.43-0.572-0.43-0.944s0.115-0.688,0.344-0.945
		l7.127-6.869c1.002-1.031,2.133-1.817,3.393-2.362c1.259-0.543,2.555-0.822,3.886-0.837c1.331-0.014,2.646,0.223,3.95,0.709
		c1.302,0.486,2.497,1.217,3.585,2.189c0.973,0.974,1.724,2.09,2.254,3.349c0.529,1.26,0.801,2.555,0.815,3.886
		s-0.214,2.641-0.687,3.929s-1.21,2.447-2.211,3.478c-1.003,1.031-2.126,1.812-3.371,2.341s-2.533,0.802-3.864,0.815
		c-1.331,0.015-2.641-0.222-3.929-0.708s-2.462-1.245-3.521-2.276c-0.286-0.257-0.43-0.564-0.43-0.923
		C363.319,217.393,363.448,217.1,363.706,216.87z"/>
</g>
</svg>